{"asset":{"version":"2.0","generator":"THREE.GLTFExporter"},"scenes":[{"nodes":[0],"name":"AuxScene"}],"scene":0,"nodes":[{"mesh":0}],"bufferViews":[{"buffer":0,"byteOffset":0,"byteLength":13248,"target":34962,"byteStride":12},{"buffer":0,"byteOffset":13248,"byteLength":13248,"target":34962,"byteStride":12}],"buffers":[{"byteLength":26496,"uri":"data:application/octet-stream;base64,"}],"accessors":[{"bufferView":0,"componentType":5126,"count":1104,"max":[100.73190307617188,10.195968627929688,100.73190307617188],"min":[-100.6581039428711,0.19596900045871735,-100.6581039428711],"type":"VEC3"},{"bufferView":1,"componentType":5126,"count":1104,"max":[0.5395735502243042,1,0.9091974496841431],"min":[-0.40066272020339966,0.11326708644628525,-0.39402347803115845],"type":"VEC3"}],"materials":[{"pbrMetallicRoughness":{"baseColorFactor":[0.5019607843137255,0.5019607843137255,0.5019607843137255,1],"metallicFactor":0,"roughnessFactor":1}}],"meshes":[{"primitives":[{"mode":4,"attributes":{"POSITION":0,"NORMAL":1},"material":0}]}]}